{"title":"The.Wolf.of.Wall.Street.2013.DVDSCR.XviD-BiDA","uid":9453041,"size":1491708060,"categoryP":"video","categoryS":"movies","magnet":"?xt=urn:btih:ce9fbdaa734cfbc160e8ef9d29072646c09958dd&amp;dn=The.Wolf.of.Wall.Street.2013.DVDSCR.XviD-BiDA&amp;tr=udp%3A%2F%2Ftracker.openbittorrent.com%3A80&amp;tr=udp%3A%2F%2Fopen.demonii.com%3A1337&amp;tr=udp%3A%2F%2Ftracker.coppersurfer.tk%3A6969&amp;tr=udp%3A%2F%2Fexodus.desync.com%3A6969","seeders":1052,"leechers":16,"uploader":"Acesn8s","files":-1,"time":1389212199,"description":"The.Wolf.of.Wall.Street.2013.DVDSCR.XviD-BiDA\n\n**********************************************************************************\n\nFormat                                   : AVI\nFormat/Info                              : Audio Video Interleave\nFile size                                : 1.39 GiB\nDuration                                 : 2h 59mn\nOverall bit rate                         : 1 106 Kbps\nWriting library                          : VirtualDub build 32842/release\n\n**********************************************************************************\n\nVideo\nID                                       : 0\nFormat                                   : MPEG-4 Visual\nFormat profile                           : Advanced Simple@L5\nFormat settings, BVOP                    : 1\nFormat settings, QPel                    : No\nFormat settings, GMC                     : No warppoints\nFormat settings, Matrix                  : Default (H.263)\nMuxing mode                              : Packed bitstream\nCodec ID                                 : XVID\nCodec ID/Hint                            : XviD\nDuration                                 : 2h 59mn\nBit rate                                 : 969 Kbps\nWidth                                    : 640 pixels\nHeight                                   : 272 pixels\nDisplay aspect ratio                     : 2.35:1\nFrame rate                               : 23.976 fps\nColor space                              : YUV\nChroma subsampling                       : 4:2:0\nBit depth                                : 8 bits\nScan type                                : Progressive\nCompression mode                         : Lossy\nBits/(Pixel*Frame)                       : 0.232\nStream size                              : 1.22 GiB (88%)\nWriting library                          : XviD 1.2.1 (UTC 2008-12-04)\n\n**********************************************************************************\n\nAudio\nID                                       : 1\nFormat                                   : MPEG Audio\nFormat version                           : Version 1\nFormat profile                           : Layer 3\nMode                                     : Joint stereo\nCodec ID                                 : 55\nCodec ID/Hint                            : MP3\nDuration                                 : 2h 59mn\nBit rate mode                            : Constant\nBit rate                                 : 128 Kbps\nChannel(s)                               : 2 channels\nSampling rate                            : 48.0 KHz\nCompression mode                         : Lossy\nStream size                              : 165 MiB (12%)\nAlignment                                : Split accross interleaves\nInterleave, duration                     : 42 ms (1.00 video frame)\nInterleave, preload duration             : 500 ms\nWriting library                          : LAME3.99r\nEncoding settings                        : -m j -V 4 -q 2 -lowpass 17 -b 128\n\n**********************************************************************************\n\t\nIMDb:\n &lt;a href=&quot;\nhttp://www.imdb.com/title/tt0993846/&quot; rel=&quot;nofollow&quot; target=&quot;_NEW&quot;&gt;\nhttp://www.imdb.com/title/tt0993846/&lt;/a&gt;\n\nActors\n\nLeonardo DiCaprio, Jonah Hill, Margot Robbie\n\nPlot\n\nBased on the true story of Jordan Belfort, from his rise to a wealthy stockbroker living the high life to his fall involving crime, corruption and the federal government. \n\n**********************************************************************************\n\nScreens:\n &lt;a href=&quot;\nhttp://s29.postimg.org/sb08jxj2f/wolf_wall_street_1.png&quot; rel=&quot;nofollow&quot; target=&quot;_NEW&quot;&gt;\nhttp://s29.postimg.org/sb08jxj2f/wolf_wall_street_1.png&lt;/a&gt;\n &lt;a href=&quot;\nhttp://s29.postimg.org/48jep22fb/wolfof_wallstreet2.png&quot; rel=&quot;nofollow&quot; target=&quot;_NEW&quot;&gt;\nhttp://s29.postimg.org/48jep22fb/wolfof_wallstreet2.png&lt;/a&gt;\n &lt;a href=&quot;\nhttp://s29.postimg.org/o4jzic8uf/wolfof_wallstreet3.png&quot; rel=&quot;nofollow&quot; target=&quot;_NEW&quot;&gt;\nhttp://s29.postimg.org/o4jzic8uf/wolfof_wallstreet3.png&lt;/a&gt;\n","torrent":{"xt":"urn:btih:ce9fbdaa734cfbc160e8ef9d29072646c09958dd","amp;dn":"The.Wolf.of.Wall.Street.2013.DVDSCR.XviD-BiDA","amp;tr":["udp%3A%2F%2Ftracker.openbittorrent.com%3A80","udp%3A%2F%2Fopen.demonii.com%3A1337","udp%3A%2F%2Ftracker.coppersurfer.tk%3A6969","udp%3A%2F%2Fexodus.desync.com%3A6969"],"infoHash":"ce9fbdaa734cfbc160e8ef9d29072646c09958dd","infoHashBuffer":{"type":"Buffer","data":[206,159,189,170,115,76,251,193,96,232,239,157,41,7,38,70,192,153,88,221]},"announce":[],"urlList":[]}}